<svg width="100" height="86" fill="none" xmlns="http://www.w3.org/2000/svg">
  <path fill-rule="evenodd" clip-rule="evenodd" d="M40.7 27.6H2c-1.1 0-2 1-2 2 0 5.3 3.9 9.7 9 10.6.7 4.5 4.2 8 8.7 8.8.9 5 5.3 9 10.6 9h.3l3 3.8h6c-4.4 0-3.4 0 0 0-2-2.3-2.6-4.5 3.1-34.2zm-2.8 4H4.2a6.8 6.8 0 006.5 4.8h25c.6-1.7 1.3-3.3 2.2-4.9zm-3 8.7h-22a6.8 6.8 0 006.6 5h15a25.8 25.8 0 01.3-5zM25 49.1h-3.3c.6 2.3 2.4 4 4.7 4.6-.6-1.4-1.1-3-1.4-4.6zM68.3 61.8c1.2-1.2 2.2-2.5 3.1-3.9h.3c5.3 0 9.7-3.9 10.6-9 4.5-.7 8-4.2 8.8-8.7 5-.9 8.9-5.3 8.9-10.6 0-1-.9-2-2-2H58.3c6.2 27.4 9.8 30.2 4 34.2 4.9 0 6.5 0 0 0h6zM75 49.1c-.3 1.6-.8 3.2-1.4 4.6 2.3-.6 4-2.3 4.7-4.6H75zm-9.4-3.9h15c3 0 5.7-2 6.5-4.9H65.2a25.5 25.5 0 01.3 5zm23.8-8.8c3 0 5.7-2 6.5-4.9H62.1c.9 1.6 1.6 3.2 2.1 5h25zM99.8 70.7a2 2 0 00-1.8-1H84.7v-6c0-1-.9-1.9-2-1.9H50h12.4-24.8H50 17.2c-1 0-2 .9-2 2v5.8H2a2 2 0 00-1.6 3.2l3.5 4.6-3.5 4.7A2 2 0 002 85.3h21.8c1 0 2-1 2-2v-5.9h33a2 2 0 010-3.9H19.2v-7.8h61.6v7.8H61a2 2 0 010 4h13.3v5.8c0 1 .8 2 2 2H98a2 2 0 001.6-3.2l-3.5-4.7 3.5-4.6a2 2 0 00.2-2zm-78 10.6v-3.9h-4.6c-1 0-2-.8-2-2v-1.9H5.9l2 2.8a2 2 0 010 2.3l-2 2.7h16zm72.4 0l-2-2.7a2 2 0 010-2.3l2-2.8h-9.5v2c0 1-.9 2-2 2h-4.5v3.8h16z" fill="#fff"/>
  <path d="M58.8 77.4H61a2 2 0 000-3.9h-2.2a2 2 0 000 4zM80.5 45.2h-15a25.8 25.8 0 00-.3-4.9H87a6.8 6.8 0 01-6.5 5zM95.8 31.5a6.8 6.8 0 01-6.5 5h-25c-.6-1.8-1.3-3.4-2.2-5h33.7zM4.2 31.5h33.7c-.9 1.6-1.6 3.2-2.1 5h-25c-3.1 0-5.8-2.1-6.6-5zM13 40.3h21.8a25.5 25.5 0 00-.3 5h-15c-3 0-5.7-2.1-6.5-5zM21.8 49.1H25c.3 1.6.8 3.2 1.4 4.6-2.3-.6-4-2.3-4.7-4.6zM58.8 73.5h22v-7.8H19.2v7.8h39.6zM21.8 77.4v4h-16l2-2.8a2 2 0 000-2.3l-2-2.8h9.5v2c0 1 .9 2 2 2h4.5zM92.1 78.6l2 2.7h-16v-3.9h4.7c1 0 2-.8 2-2v-1.9h9.4l-2 2.8a2 2 0 000 2.3z" fill="#fff"/>
  <path fill-rule="evenodd" clip-rule="evenodd" d="M40.7 27.6H2c-1.1 0-2 1-2 2 0 5.3 3.9 9.7 9 10.6.7 4.5 4.2 8 8.7 8.8.9 5 5.3 9 10.6 9h.3l3 3.8h6c-4.4 0-3.4 0 0 0-2-2.3-2.6-4.5 3.1-34.2zm-2.8 4H4.2a6.8 6.8 0 006.5 4.8h25c.6-1.7 1.3-3.3 2.2-4.9zm-3 8.7h-22a6.8 6.8 0 006.6 5h15a25.8 25.8 0 01.3-5zM25 49.1h-3.3c.6 2.3 2.4 4 4.7 4.6-.6-1.4-1.1-3-1.4-4.6zM68.3 61.8c1.2-1.2 2.2-2.5 3.1-3.9h.3c5.3 0 9.7-3.9 10.6-9 4.5-.7 8-4.2 8.8-8.7 5-.9 8.9-5.3 8.9-10.6 0-1-.9-2-2-2H58.3c6.2 27.4 9.8 30.2 4 34.2 4.9 0 6.5 0 0 0h6zM75 49.1c-.3 1.6-.8 3.2-1.4 4.6 2.3-.6 4-2.3 4.7-4.6H75zm-9.4-3.9h15c3 0 5.7-2 6.5-4.9H65.2a25.5 25.5 0 01.3 5zm23.8-8.8c3 0 5.7-2 6.5-4.9H62.1c.9 1.6 1.6 3.2 2.1 5h25zM99.8 70.7a2 2 0 00-1.8-1H84.7v-6c0-1-.9-1.9-2-1.9H50h12.4-24.8H50 17.2c-1 0-2 .9-2 2v5.8H2a2 2 0 00-1.6 3.2l3.5 4.6-3.5 4.7A2 2 0 002 85.3h21.8c1 0 2-1 2-2v-5.9h33a2 2 0 010-3.9H19.2v-7.8h61.6v7.8H61a2 2 0 010 4h13.3v5.8c0 1 .8 2 2 2H98a2 2 0 001.6-3.2l-3.5-4.7 3.5-4.6a2 2 0 00.2-2zm-78 10.6v-3.9h-4.6c-1 0-2-.8-2-2v-1.9H5.9l2 2.8a2 2 0 010 2.3l-2 2.7h16zm72.4 0l-2-2.7a2 2 0 010-2.3l2-2.8h-9.5v2c0 1-.9 2-2 2h-4.5v3.8h16z" fill="#00C058"/>
  <path d="M58.8 77.4H61a2 2 0 000-3.9h-2.2a2 2 0 000 4z" fill="#00C058"/>
  <path d="M71.1 19.4c0 3-.7 5.6-2.3 7.9a16.2 16.2 0 01-6.1 5.5 18 18 0 017 6 15 15 0 012.7 8.8c0 5.5-2 9.9-5.8 13a24.1 24.1 0 01-16 4.8c-6.7 0-12-1.6-16-4.8a16 16 0 01-5.9-13c0-3.3.9-6.2 2.6-8.8 1.7-2.5 4.2-4.5 7.3-6a16.4 16.4 0 01-6.3-5.5 14 14 0 01-2.2-8c0-5.3 1.8-9.5 5.5-12.6 3.7-3.1 8.7-4.7 15-4.7 6.3 0 11.3 1.6 15 4.7 3.7 3 5.5 7.3 5.5 12.7zm-13.3 27c0-2.5-.6-4.4-2-5.8-1.3-1.4-3-2-5.2-2a7 7 0 00-5.3 2c-1.3 1.4-2 3.3-2 5.8s.7 4.5 2 5.9a7.1 7.1 0 005.4 2.1c2.1 0 3.9-.7 5.2-2.1 1.3-1.4 2-3.4 2-5.9zM50.5 13c-1.9 0-3.4.7-4.4 2-1 1.2-1.5 2.9-1.5 5.1 0 2.2.5 4 1.5 5.4 1 1.3 2.6 2 4.6 2 2 0 3.4-.7 4.4-2 1-1.4 1.5-3.2 1.5-5.4a8 8 0 00-1.5-5.2c-1-1.2-2.5-1.9-4.6-1.9z" fill="#fff" stroke="#000" stroke-width="3.5"/>
</svg>
