<svg width="102" height="96" fill="none" xmlns="http://www.w3.org/2000/svg">
  <path d="M20 24.8a1 1 0 011.8 0L25 32a1 1 0 00.9.7l8 .6a1 1 0 01.5 1.8l-6 5.2a1 1 0 00-.4 1l1.9 7.7a1 1 0 01-1.5 1.1L21.4 46a1 1 0 00-1 0l-6.8 4.2a1 1 0 01-1.5-1l1.8-7.9a1 1 0 00-.3-1l-6-5.1a1 1 0 01.5-1.8l8-.6a1 1 0 00.8-.7l3.1-7.3zM54 2.2a1 1 0 011.8 0l3 7.4a1 1 0 001 .6l7.9.7a1 1 0 01.6 1.7l-6.1 5.2a1 1 0 00-.3 1l1.8 7.8a1 1 0 01-1.5 1l-6.8-4a1 1 0 00-1 0l-6.9 4a1 1 0 01-1.5-1l1.9-7.8a1 1 0 00-.3-1l-6.1-5.2A1 1 0 0142 11l8-.7a1 1 0 00.8-.6l3-7.4zm31.8 22.6a1 1 0 011.9 0l3 7.3a1 1 0 001 .7l7.9.6a1 1 0 01.6 1.8L94 40.4a1 1 0 00-.3 1l1.8 7.7a1 1 0 01-1.5 1.1L87.3 46a1 1 0 00-1 0l-6.9 4.2a1 1 0 01-1.5-1l1.9-7.9a1 1 0 00-.3-1l-6.1-5.1a1 1 0 01.6-1.8l8-.6a1 1 0 00.8-.7l3-7.3z" fill="#fff" stroke="#00C058" stroke-width="3"/>
  <path fill-rule="evenodd" clip-rule="evenodd" d="M9.8 48c-.6.6-1 1.7-1 2.7V61l-1.4-1.4A3.8 3.8 0 102 64.9l6.7 6.7v19h2.5V83h18.8v7.7h2.5v-40a4 4 0 00-1.2-2.9 5.3 5.3 0 00-5.4 0 5.3 5.3 0 00-5.3.1 5.3 5.3 0 00-5.3 0c-1.7-.9-3.7-1.1-5.2-.1a2.9 2.9 0 00-.4.2zm20.3 28H11.3v4.5h18.8V76zM12.4 49.2a1.4 1.4 0 00-1.1 1.4V64a1.3 1.3 0 01-2.1 1l-3.6-3.6A1.3 1.3 0 103.8 63l7.1 7.1a1.3 1.3 0 01.4 1v2.2h18.8V50.7a1.4 1.4 0 10-2.8 0v8a1.3 1.3 0 01-2.5 0v-8a1.4 1.4 0 00-2.4-1 1.4 1.4 0 00-.4 1v8a1.3 1.3 0 01-2.6 0v-8a1.4 1.4 0 10-2.8 0v8a1.3 1.3 0 01-2.5 0v-8a1.4 1.4 0 00-1.7-1.4z" fill="#007A4E"/>
  <path fill-rule="evenodd" clip-rule="evenodd" d="M9.8 48c-.6.6-1 1.7-1 2.7V61l-1.4-1.4A3.8 3.8 0 102 64.9l6.7 6.7v19h2.5V83h18.8v7.7h2.5v-40a4 4 0 00-1.2-2.9 5.3 5.3 0 00-5.4 0 5.3 5.3 0 00-5.3.1 5.3 5.3 0 00-5.3 0c-1.7-.9-3.7-1.1-5.2-.1a2.9 2.9 0 00-.4.2zm20.3 28H11.3v4.5h18.8V76zM12.4 49.2a1.4 1.4 0 00-1.1 1.4V64a1.3 1.3 0 01-2.1 1l-3.6-3.6A1.3 1.3 0 103.8 63l7.1 7.1a1.3 1.3 0 01.4 1v2.2h18.8V50.7a1.4 1.4 0 10-2.8 0v8a1.3 1.3 0 01-2.5 0v-8a1.4 1.4 0 00-2.4-1 1.4 1.4 0 00-.4 1v8a1.3 1.3 0 01-2.6 0v-8a1.4 1.4 0 10-2.8 0v8a1.3 1.3 0 01-2.5 0v-8a1.4 1.4 0 00-1.7-1.4z" fill="#fff"/>
  <path fill-rule="evenodd" clip-rule="evenodd" d="M76.1 48c-.6.6-1 1.7-1 2.7V61l-1.4-1.4a3.8 3.8 0 10-5.4 5.3l6.8 6.7v19h2.5V83h18.8v7.7h2.5v-40a4 4 0 00-1.2-2.9 5.3 5.3 0 00-5.4 0 5.3 5.3 0 00-5.3.1 5.3 5.3 0 00-5.3 0h-.1c-1.6-.9-3.6-1.1-5.2-.1a2.9 2.9 0 00-.3.2zm20.3 28H77.6v4.5h18.8V76zM78.7 49.2a1.4 1.4 0 00-1.1 1.4V64a1.3 1.3 0 01-2.1 1l-3.6-3.6a1.3 1.3 0 10-1.8 1.7l7.1 7.1a1.3 1.3 0 01.4 1v2.2h18.8V50.7a1.4 1.4 0 10-2.8 0v8a1.3 1.3 0 01-2.2.9 1.3 1.3 0 01-.3-.9v-8a1.4 1.4 0 10-2.9 0v8a1.3 1.3 0 01-2.5 0v-8a1.4 1.4 0 10-2.8 0v8a1.3 1.3 0 11-2.5 0v-8a1.4 1.4 0 00-1.7-1.4z" fill="#007A4E"/>
  <path fill-rule="evenodd" clip-rule="evenodd" d="M76.1 48c-.6.6-1 1.7-1 2.7V61l-1.4-1.4a3.8 3.8 0 10-5.4 5.3l6.8 6.7v19h2.5V83h18.8v7.7h2.5v-40a4 4 0 00-1.2-2.9 5.3 5.3 0 00-5.4 0 5.3 5.3 0 00-5.3.1 5.3 5.3 0 00-5.3 0h-.1c-1.6-.9-3.6-1.1-5.2-.1a2.9 2.9 0 00-.3.2zm20.3 28H77.6v4.5h18.8V76zM78.7 49.2a1.4 1.4 0 00-1.1 1.4V64a1.3 1.3 0 01-2.1 1l-3.6-3.6a1.3 1.3 0 10-1.8 1.7l7.1 7.1a1.3 1.3 0 01.4 1v2.2h18.8V50.7a1.4 1.4 0 10-2.8 0v8a1.3 1.3 0 01-2.2.9 1.3 1.3 0 01-.3-.9v-8a1.4 1.4 0 10-2.9 0v8a1.3 1.3 0 01-2.5 0v-8a1.4 1.4 0 10-2.8 0v8a1.3 1.3 0 11-2.5 0v-8a1.4 1.4 0 00-1.7-1.4z" fill="#fff"/>
  <path fill-rule="evenodd" clip-rule="evenodd" d="M43 24.9c-.7.6-1 1.7-1 2.7v10.3l-1.5-1.5a3.8 3.8 0 00-5.3 5.4l6.7 6.7v19h2.5V60h18.8v7.6h2.6v-40a4 4 0 00-1.3-2.8 5.3 5.3 0 00-5.3 0 5.3 5.3 0 00-5.4.1 5.3 5.3 0 00-5.3 0c-1.6-1-3.7-1.2-5.2-.1a2.9 2.9 0 00-.3.2zm20.3 27.9H44.4v4.6h18.8v-4.6zM45.5 26.2a1.4 1.4 0 00-1.2 1.4v13.3a1.3 1.3 0 01-2.1.9l-3.5-3.6A1.3 1.3 0 0037 40l7 7.1a1.3 1.3 0 01.4.9v2.3h18.8V27.6a1.4 1.4 0 10-2.8 0v8a1.3 1.3 0 01-2.5 0v-8a1.4 1.4 0 00-2-1.3 1.4 1.4 0 00-.8 1.3v8a1.3 1.3 0 01-2.5 0v-8a1.4 1.4 0 10-2.8 0v8a1.3 1.3 0 01-2.5 0v-8a1.4 1.4 0 00-1.7-1.4z" fill="#007A4E"/>
  <path fill-rule="evenodd" clip-rule="evenodd" d="M43 24.9c-.7.6-1 1.7-1 2.7v10.3l-1.5-1.5a3.8 3.8 0 00-5.3 5.4l6.7 6.7v19h2.5V60h18.8v7.6h2.6v-40a4 4 0 00-1.3-2.8 5.3 5.3 0 00-5.3 0 5.3 5.3 0 00-5.4.1 5.3 5.3 0 00-5.3 0c-1.6-1-3.7-1.2-5.2-.1a2.9 2.9 0 00-.3.2zm20.3 27.9H44.4v4.6h18.8v-4.6zM45.5 26.2a1.4 1.4 0 00-1.2 1.4v13.3a1.3 1.3 0 01-2.1.9l-3.5-3.6A1.3 1.3 0 0037 40l7 7.1a1.3 1.3 0 01.4.9v2.3h18.8V27.6a1.4 1.4 0 10-2.8 0v8a1.3 1.3 0 01-2.5 0v-8a1.4 1.4 0 00-2-1.3 1.4 1.4 0 00-.8 1.3v8a1.3 1.3 0 01-2.5 0v-8a1.4 1.4 0 10-2.8 0v8a1.3 1.3 0 01-2.5 0v-8a1.4 1.4 0 00-1.7-1.4z" fill="#fff"/>
  <path d="M11.7 49.7a1.4 1.4 0 012.4 1v8a1.3 1.3 0 002.5 0v-8a1.4 1.4 0 112.8 0v8a1.3 1.3 0 102.6 0v-8a1.4 1.4 0 012-1.3 1.4 1.4 0 01.8 1.3v8a1.3 1.3 0 002.5 0v-8a1.4 1.4 0 112.8 0v22.7H11.3v-2.3a1.3 1.3 0 00-.4-.9l-7-7a1.3 1.3 0 011.7-1.8l3.6 3.5a1.3 1.3 0 002.1-.9V50.7a1.4 1.4 0 01.4-1z" fill="#007A4E"/>
  <path d="M11.7 49.7a1.4 1.4 0 012.4 1v8a1.3 1.3 0 002.5 0v-8a1.4 1.4 0 112.8 0v8a1.3 1.3 0 102.6 0v-8a1.4 1.4 0 012-1.3 1.4 1.4 0 01.8 1.3v8a1.3 1.3 0 002.5 0v-8a1.4 1.4 0 112.8 0v22.7H11.3v-2.3a1.3 1.3 0 00-.4-.9l-7-7a1.3 1.3 0 011.7-1.8l3.6 3.5a1.3 1.3 0 002.1-.9V50.7a1.4 1.4 0 01.4-1z" fill="#fff"/>
  <path d="M44.9 26.6a1.4 1.4 0 012.4 1v8a1.3 1.3 0 102.5 0v-8a1.4 1.4 0 112.8 0v8a1.3 1.3 0 102.5 0v-8a1.4 1.4 0 012-1.3 1.4 1.4 0 01.8 1.3v8a1.3 1.3 0 002.2.8 1.3 1.3 0 00.3-.8v-8a1.4 1.4 0 112.9 0v22.7H44.4V48a1.3 1.3 0 00-.3-.9L37 40a1.3 1.3 0 011.8-1.8l3.5 3.6a1.3 1.3 0 002.1-1V27.7a1.4 1.4 0 01.5-1z" fill="#007A4E"/>
  <path d="M44.9 26.6a1.4 1.4 0 012.4 1v8a1.3 1.3 0 102.5 0v-8a1.4 1.4 0 112.8 0v8a1.3 1.3 0 102.5 0v-8a1.4 1.4 0 012-1.3 1.4 1.4 0 01.8 1.3v8a1.3 1.3 0 002.2.8 1.3 1.3 0 00.3-.8v-8a1.4 1.4 0 112.9 0v22.7H44.4V48a1.3 1.3 0 00-.3-.9L37 40a1.3 1.3 0 011.8-1.8l3.5 3.6a1.3 1.3 0 002.1-1V27.7a1.4 1.4 0 01.5-1z" fill="#fff"/>
  <path d="M78 49.7a1.4 1.4 0 012.4 1v8a1.3 1.3 0 002.5 0v-8a1.4 1.4 0 112.8 0v8a1.3 1.3 0 002.6 0v-8a1.4 1.4 0 112.8 0v8a1.3 1.3 0 002.5 0v-8a1.4 1.4 0 012.8 0v22.7H77.6v-2.3a1.3 1.3 0 00-.4-.9l-7-7a1.3 1.3 0 111.7-1.8l3.5 3.5a1.3 1.3 0 002.2-.9V50.7a1.4 1.4 0 01.4-1z" fill="#007A4E"/>
  <path d="M78 49.7a1.4 1.4 0 012.4 1v8a1.3 1.3 0 002.5 0v-8a1.4 1.4 0 112.8 0v8a1.3 1.3 0 002.6 0v-8a1.4 1.4 0 112.8 0v8a1.3 1.3 0 002.5 0v-8a1.4 1.4 0 012.8 0v22.7H77.6v-2.3a1.3 1.3 0 00-.4-.9l-7-7a1.3 1.3 0 111.7-1.8l3.5 3.5a1.3 1.3 0 002.2-.9V50.7a1.4 1.4 0 01.4-1z" fill="#fff"/>
  <path fill-rule="evenodd" clip-rule="evenodd" d="M9.8 48c-.6.6-1 1.7-1 2.7V61l-1.4-1.4A3.8 3.8 0 002 64.9l6.7 6.7v19h2.5V83h18.8v7.7h2.5v-40a4 4 0 00-1.2-2.9 5.3 5.3 0 00-5.4 0 5.3 5.3 0 00-5.3.1 5.3 5.3 0 00-5.3 0c-1.7-.9-3.7-1.1-5.3 0a2.7 2.7 0 00-.3.1zm20.3 28H11.3v4.5h18.8V76zM12.4 49.2a1.4 1.4 0 00-1.1 1.4V64a1.3 1.3 0 01-2.1 1l-3.6-3.6A1.3 1.3 0 003.8 63l7.1 7.1a1.3 1.3 0 01.4 1v2.2h18.8V50.7a1.4 1.4 0 10-2.8 0v8a1.3 1.3 0 01-2.5 0v-8a1.4 1.4 0 10-2.8 0v8a1.3 1.3 0 11-2.6 0v-8a1.4 1.4 0 00-2.8 0v8a1.3 1.3 0 01-2.5 0v-8a1.4 1.4 0 00-1.7-1.4z" fill="#007A4E"/>
  <path fill-rule="evenodd" clip-rule="evenodd" d="M9.8 48c-.6.6-1 1.7-1 2.7V61l-1.4-1.4A3.8 3.8 0 002 64.9l6.7 6.7v19h2.5V83h18.8v7.7h2.5v-40a4 4 0 00-1.2-2.9 5.3 5.3 0 00-5.4 0 5.3 5.3 0 00-5.3.1 5.3 5.3 0 00-5.3 0c-1.7-.9-3.7-1.1-5.3 0a2.7 2.7 0 00-.3.1zm20.3 28H11.3v4.5h18.8V76zM12.4 49.2a1.4 1.4 0 00-1.1 1.4V64a1.3 1.3 0 01-2.1 1l-3.6-3.6A1.3 1.3 0 003.8 63l7.1 7.1a1.3 1.3 0 01.4 1v2.2h18.8V50.7a1.4 1.4 0 10-2.8 0v8a1.3 1.3 0 01-2.5 0v-8a1.4 1.4 0 10-2.8 0v8a1.3 1.3 0 11-2.6 0v-8a1.4 1.4 0 00-2.8 0v8a1.3 1.3 0 01-2.5 0v-8a1.4 1.4 0 00-1.7-1.4z" fill="#000"/>
  <path fill-rule="evenodd" clip-rule="evenodd" d="M76.1 48c-.7.6-1 1.7-1 2.7V61l-1.4-1.4a3.8 3.8 0 00-5.4 5.3l6.8 6.7v19h2.5V83h18.8v7.7h2.5v-40a4 4 0 00-1.3-2.9 5.3 5.3 0 00-5.3 0 5.3 5.3 0 00-5.3.1 5.3 5.3 0 00-5.3 0c-1.7-.9-3.8-1.1-5.3 0a2.7 2.7 0 00-.3.1zm20.3 28H77.6v4.5h18.8V76zM78.7 49.2a1.4 1.4 0 00-1.1 1.4V64a1.3 1.3 0 01-2.2 1L72 61.3a1.3 1.3 0 00-1.8 1.7l7.1 7.1a1.3 1.3 0 01.4 1v2.2h18.8V50.7a1.4 1.4 0 10-2.8 0v8a1.3 1.3 0 01-2.5 0v-8a1.4 1.4 0 10-2.9 0v8a1.3 1.3 0 11-2.5 0v-8a1.4 1.4 0 00-2.8 0v8a1.3 1.3 0 11-2.5 0v-8a1.4 1.4 0 00-1.7-1.4z" fill="#007A4E"/>
  <path fill-rule="evenodd" clip-rule="evenodd" d="M76.1 48c-.7.6-1 1.7-1 2.7V61l-1.4-1.4a3.8 3.8 0 00-5.4 5.3l6.8 6.7v19h2.5V83h18.8v7.7h2.5v-40a4 4 0 00-1.3-2.9 5.3 5.3 0 00-5.3 0 5.3 5.3 0 00-5.3.1 5.3 5.3 0 00-5.3 0c-1.7-.9-3.8-1.1-5.3 0a2.7 2.7 0 00-.3.1zm20.3 28H77.6v4.5h18.8V76zM78.7 49.2a1.4 1.4 0 00-1.1 1.4V64a1.3 1.3 0 01-2.2 1L72 61.3a1.3 1.3 0 00-1.8 1.7l7.1 7.1a1.3 1.3 0 01.4 1v2.2h18.8V50.7a1.4 1.4 0 10-2.8 0v8a1.3 1.3 0 01-2.5 0v-8a1.4 1.4 0 10-2.9 0v8a1.3 1.3 0 11-2.5 0v-8a1.4 1.4 0 00-2.8 0v8a1.3 1.3 0 11-2.5 0v-8a1.4 1.4 0 00-1.7-1.4z" fill="#000"/>
  <path fill-rule="evenodd" clip-rule="evenodd" d="M44 24.9c-.7.6-1 1.7-1 2.7v10.3l-1.5-1.5a3.8 3.8 0 10-5.3 5.4l6.7 6.7v19h2.5V60h18.8v7.6h2.5v-40a4 4 0 00-1.2-2.8 5.3 5.3 0 00-5.3 0 5.3 5.3 0 00-5.4.1 5.3 5.3 0 00-5.3 0c-1.6-1-3.7-1.2-5.3-.1a2.7 2.7 0 00-.2.2zm20.2 27.9H45.4v4.6h18.8v-4.6zM46.6 26.2a1.4 1.4 0 00-1.2 1.4v13.3a1.3 1.3 0 01-2.1.9l-3.6-3.6A1.3 1.3 0 0038 40l7 7.1a1.3 1.3 0 01.4.9v2.3h18.8V27.6a1.4 1.4 0 00-2.8 0v8a1.3 1.3 0 01-2.5 0v-8a1.4 1.4 0 10-2.8 0v8a1.3 1.3 0 01-2.5 0v-8a1.4 1.4 0 10-2.8 0v8a1.3 1.3 0 01-2.6 0v-8a1.4 1.4 0 00-1.6-1.4z" fill="#007A4E"/>
  <path fill-rule="evenodd" clip-rule="evenodd" d="M44 24.9c-.7.6-1 1.7-1 2.7v10.3l-1.5-1.5a3.8 3.8 0 10-5.3 5.4l6.7 6.7v19h2.5V60h18.8v7.6h2.5v-40a4 4 0 00-1.2-2.8 5.3 5.3 0 00-5.3 0 5.3 5.3 0 00-5.4.1 5.3 5.3 0 00-5.3 0c-1.6-1-3.7-1.2-5.3-.1a2.7 2.7 0 00-.2.2zm20.2 27.9H45.4v4.6h18.8v-4.6zM46.6 26.2a1.4 1.4 0 00-1.2 1.4v13.3a1.3 1.3 0 01-2.1.9l-3.6-3.6A1.3 1.3 0 0038 40l7 7.1a1.3 1.3 0 01.4.9v2.3h18.8V27.6a1.4 1.4 0 00-2.8 0v8a1.3 1.3 0 01-2.5 0v-8a1.4 1.4 0 10-2.8 0v8a1.3 1.3 0 01-2.5 0v-8a1.4 1.4 0 10-2.8 0v8a1.3 1.3 0 01-2.6 0v-8a1.4 1.4 0 00-1.6-1.4z" fill="#000"/>
</svg>
