<svg width="101" height="95" fill="none" xmlns="http://www.w3.org/2000/svg">
  <path d="M40.9 62.8a1.5 1.5 0 110-3h48.3l.2-.3V3.8c0-.2-.1-.3-.2-.3H15.6c-.1 0-.2.1-.2.3v26.8a1.5 1.5 0 11-3 0V3.8C12.3 2 13.7.5 15.5.5h73.6c1.8 0 3.2 1.5 3.2 3.3v55.7c0 1.8-1.4 3.3-3.2 3.3H61.7V72h11.7a1.5 1.5 0 110 3H38.9a1.5 1.5 0 110-3h4.2v-9.2h-2.2zM46 72h12.5v-9.2H46.1V72z" fill="#000"/>
  <path d="M40.9 49.4h49.4a1.5 1.5 0 110 3H40.9a1.5 1.5 0 110-3zM4.3 33.2H33c1.8 0 3.3 1.5 3.3 3.3v54.3c0 1.8-1.5 3.3-3.3 3.3H4.3A3.3 3.3 0 011 90.8V36.5c0-1.8 1.5-3.3 3.3-3.3zm29 9.1H4v40.5h29.3V42.3zm-.3-6H4.3c-.1 0-.3 0-.3.2v2.8h29.3v-2.8c0-.2-.1-.3-.3-.3zM4.3 91H33c.2 0 .3 0 .3-.2v-5H4v5l.3.2z" fill="#000"/>
  <path d="M15.6 86.9h6.1a1.5 1.5 0 110 3h-6a1.5 1.5 0 110-3z" fill="#000"/>
  <mask id="a" fill="#fff">
    <rect x="18.8" y="46.5" width="29.7" height="16.8" rx="2"/>
  </mask>
  <rect x="18.8" y="46.5" width="29.7" height="16.8" rx="2" fill="#fff" stroke="#00C058" stroke-width="7" mask="url(#a)"/>
  <mask id="b" fill="#fff">
    <rect x="38.6" y="9.9" width="62.4" height="28.7" rx="2"/>
  </mask>
  <rect x="38.6" y="9.9" width="62.4" height="28.7" rx="2" fill="#fff" stroke="#00C058" stroke-width="7" mask="url(#b)"/>
</svg>
