<svg width="100" height="88" fill="none" xmlns="http://www.w3.org/2000/svg">
  <path fill-rule="evenodd" clip-rule="evenodd" d="M14 19.3c-3.6 0-6.6 3-6.6 6.5v48.5h-3V25.8c0-5.2 4.3-9.5 9.5-9.5h63.8v3H14zm72 0h-8.3v-3h8.4c5.2 0 9.5 4.3 9.5 9.5v49.4h-3V25.8c0-3.6-3-6.5-6.5-6.5z" fill="#fff"/>
  <path fill-rule="evenodd" clip-rule="evenodd" d="M3 76.3v.8a7 7 0 007 7h80a7 7 0 007-7v-.8H3zm-2-3a1 1 0 00-1 1V77a10 10 0 0010 10h80a10 10 0 0010-10v-2.8c0-.6-.4-1-1-1H1z" fill="#fff"/>
  <path fill-rule="evenodd" clip-rule="evenodd" d="M44 80.2c0-.8.7-1.5 1.5-1.5h9a1.5 1.5 0 110 3h-9c-.8 0-1.5-.7-1.5-1.5z" fill="#fff"/>
  <path fill-rule="evenodd" clip-rule="evenodd" d="M3 77.1v-.8h94v.8a7 7 0 01-7 7H10a7 7 0 01-7-7zm41 3.1c0-.8.7-1.5 1.5-1.5h9a1.5 1.5 0 110 3h-9c-.8 0-1.5-.7-1.5-1.5z" fill="#fff"/>
  <path d="M14 19.3c-3.6 0-6.6 3-6.6 6.5v47.5h85.2V25.8c0-3.6-3-6.5-6.5-6.5H13.9z" fill="#fff"/>
  <path fill-rule="evenodd" clip-rule="evenodd" d="M14 19.3c-3.6 0-6.6 3-6.6 6.5v48.5h-3V25.8c0-5.2 4.3-9.5 9.5-9.5h7.9v3h-7.9zm72 0h-8.3v-3h8.4c5.2 0 9.5 4.3 9.5 9.5v49.4h-3V25.8c0-3.6-3-6.5-6.5-6.5z" fill="#00C058"/>
  <path fill-rule="evenodd" clip-rule="evenodd" d="M3 76.3v.8a7 7 0 007 7h80a7 7 0 007-7v-.8H3zm-2-3a1 1 0 00-1 1V77a10 10 0 0010 10h80a10 10 0 0010-10v-2.8c0-.6-.4-1-1-1H1z" fill="#00C058"/>
  <path fill-rule="evenodd" clip-rule="evenodd" d="M44 80.2c0-.8.7-1.5 1.5-1.5h9a1.5 1.5 0 010 3h-9c-.8 0-1.5-.7-1.5-1.5z" fill="#00C058"/>
  <path d="M16.8 32.7a32.7 32.7 0 1065.4 0 32.7 32.7 0 00-65.4 0zM48 15.2a59 59 0 00-10.6 1.2C39.8 9 43.7 4 48 3v12.1zm0 3v13H35c0-3.9.5-7.8 1.5-11.6 3.8-.9 7.6-1.4 11.5-1.5zm-16 13H20c1-4.4 6-8.3 13.3-10.6A59 59 0 0032 31.2zm0 3c.1 3.5.5 7 1.2 10.6C26 42.4 20.8 38.5 20 34H32zm3 0h13v13c-3.9 0-7.7-.6-11.5-1.5-1-3.8-1.5-7.7-1.6-11.6zm13 16v12c-4.3-.9-8.2-6-10.6-13.2 3.5.7 7 1 10.6 1.1zm3 12v-12A59 59 0 0061.6 49c-2.4 7.2-6.2 12.3-10.6 13.3zm0-15v-13h13c0 3.8-.5 7.7-1.4 11.5-3.8 1-7.7 1.4-11.6 1.5zm16-13H79c-1 4.3-6 8.2-13.3 10.6A59 59 0 0067 34zm0-3a59 59 0 00-1.2-10.6C73 22.9 78.2 26.8 79 31.2H67zm-3 0H51v-13c3.9 0 7.8.5 11.6 1.4.9 3.8 1.4 7.7 1.5 11.6zm-13-16V3.1c4.4.9 8.2 6 10.6 13.3A59 59 0 0051 15.2zm-10.2-11c-2.9 3-5.2 7.5-6.8 13-5.4 1.5-10 3.9-13 6.8A29.9 29.9 0 0140.8 4.2zM21 41.4c3 2.9 7.6 5.2 13 6.7 1.6 5.5 4 10 6.8 13A29.9 29.9 0 0121 41.4zM58.2 61c2.9-3 5.2-7.5 6.8-13 5.4-1.5 10-3.8 13-6.7A29.9 29.9 0 0158.2 61zM78 24c-3-3-7.6-5.3-13-6.8-1.6-5.5-4-10-6.8-13A29.9 29.9 0 0178 24z" fill="#fff"/>
  <path d="M40.8 4.2c-2.9 3-5.2 7.5-6.8 13-5.4 1.5-10 3.9-13 6.8A29.9 29.9 0 0140.8 4.2zM48 18.1v13.1H35c0-3.9.5-7.8 1.5-11.6 3.8-.9 7.6-1.4 11.5-1.5zM32 31.2H20c1-4.4 6-8.3 13.3-10.6A59 59 0 0032 31.2zM32 34.1c.1 3.6.5 7.2 1.2 10.7C26 42.4 20.8 38.5 20 34H32zM48 15.2a59 59 0 00-10.6 1.2C39.8 9 43.7 4 48 3v12.1zM51 15.2V3.1c4.4.9 8.2 6 10.6 13.3A59 59 0 0051 15.2zM64 31.2H51v-13c3.9 0 7.8.5 11.6 1.4.9 3.8 1.4 7.7 1.5 11.6zM35 34.1h13v13.1c-3.9 0-7.7-.6-11.5-1.5-1-3.8-1.5-7.7-1.6-11.6zM51 47.2v-13h13c0 3.8-.5 7.7-1.4 11.5-3.8 1-7.7 1.4-11.6 1.5zM67 34.1H79c-1 4.4-6 8.3-13.3 10.7A59 59 0 0067 34zM67 31.2a59 59 0 00-1.2-10.6C73 22.9 78.2 26.8 79 31.2H67zM65 17.2c5.4 1.5 10 3.9 13 6.8A29.9 29.9 0 0058.2 4.2c2.9 3 5.2 7.5 6.8 13z" fill="#fff"/>
  <path d="M16.8 32.7a32.7 32.7 0 1065.4 0 32.7 32.7 0 00-65.4 0zM48 15.2a59 59 0 00-10.6 1.2C39.8 9 43.7 4 48 3v12.1zm0 3v13H35c0-3.9.5-7.8 1.5-11.6 3.8-.9 7.6-1.4 11.5-1.5zm-16 13H20c1-4.4 6-8.3 13.3-10.6A59 59 0 0032 31.2zm0 3c.1 3.5.5 7 1.2 10.6C26 42.4 20.8 38.5 20 34H32zm3 0h13v13c-3.9 0-7.7-.6-11.5-1.5-1-3.8-1.5-7.7-1.6-11.6zm13 16v12c-4.3-.9-8.2-6-10.6-13.2 3.5.7 7 1 10.6 1.1zm3 12v-12A59 59 0 0061.6 49c-2.4 7.2-6.2 12.3-10.6 13.3zm0-15v-13h13c0 3.8-.5 7.7-1.4 11.5-3.8 1-7.7 1.4-11.6 1.5zm16-13H79c-1 4.3-6 8.2-13.3 10.6A59 59 0 0067 34zm0-3a59 59 0 00-1.2-10.6C73 22.9 78.2 26.8 79 31.2H67zm-3 0H51v-13c3.9 0 7.8.5 11.6 1.4.9 3.8 1.4 7.7 1.5 11.6zm-13-16V3.1c4.4.9 8.2 6 10.6 13.3A59 59 0 0051 15.2zm-10.2-11c-2.9 3-5.2 7.5-6.8 13-5.4 1.5-10 3.9-13 6.8A29.9 29.9 0 0140.8 4.2zM21 41.4c3 2.9 7.6 5.2 13 6.7 1.6 5.5 4 10 6.8 13A29.9 29.9 0 0121 41.4zM58.2 61c2.9-3 5.2-7.5 6.8-13 5.4-1.5 10-3.8 13-6.7A29.9 29.9 0 0158.2 61zM78 24c-3-3-7.6-5.3-13-6.8-1.6-5.5-4-10-6.8-13A29.9 29.9 0 0178 24z" fill="#000"/>
</svg>
