<svg width="100" height="100" fill="none" xmlns="http://www.w3.org/2000/svg">
  <path d="M92.5 50c0 23-18.8 41.6-42 41.6S8.5 72.9 8.5 50c0-23 18.8-41.6 42-41.6s42 18.7 42 41.6z" stroke="#00C058" stroke-width="3"/>
  <path d="M85.5 50a34.8 34.8 0 01-35 34.6c-19.3 0-35-15.5-35-34.6a34.8 34.8 0 0135-34.6c19.3 0 35 15.5 35 34.6z" stroke="#00C058" stroke-width="3"/>
  <path d="M50 0v100M.5 50.5h100" stroke="#00C058" stroke-width="3.5"/>
  <path fill-rule="evenodd" clip-rule="evenodd" d="M66 11.8c.8-3.1-3-7.8-7.5-7.8H53c-2.7 0-5.1 1.4-6.5 3.5h-4c-4.3 0-7.8 1.3-7.8 5.6l5.1 16.3-9.2 12.4c-3 4.2-4.6 9-4.6 14.1 0 13.3 10.9 24 24.2 24h.6a24.1 24.1 0 0024.2-24c0-5-1.6-10-4.6-14l-9.2-12.6L66 11.8zm1.5 32l-9.1-12.4H42.6l-9.1 12.5c-2.6 3.5-4 7.7-4 12 0 11.3 9.3 20.5 20.7 20.5h.6c11.4 0 20.7-9.2 20.7-20.5 0-4.3-1.4-8.5-4-12zM45.3 11h-2.8c-2.3 0-4.3-.1-4.3 2.2 0 .4.1.9.3 1.3L43 28h15l4.6-15 .1-1v-.2c0-2.3-1.8-4.2-4.2-4.2H53a4.2 4.2 0 00-4 5.5l3.2 7.4-3.4 1.1c-1-2.8-3.8-7.6-3.5-10.6z" fill="#fff"/>
  <path fill-rule="evenodd" clip-rule="evenodd" d="M58.4 31.4l9.1 12.5c2.6 3.5 4 7.7 4 12 0 11.3-9.3 20.5-20.7 20.5h-.6A20.6 20.6 0 0129.5 56c0-4.3 1.4-8.5 4-12l9.1-12.5h15.8z" fill="#fff"/>
  <path d="M42.5 11h2.8c-.3 3 2.6 7.7 3.5 10.5l3.4-1L49 13a4.2 4.2 0 014-5.5h5.5c2.4 0 4.2 1.9 4.2 4.2v.2l-.1 1-4.7 15H43l-4.5-13.5c-.2-.4-.3-.9-.3-1.3 0-2.3 2-2.2 4.3-2.2z" fill="#fff"/>
  <path d="M48.7 65.8v3.7h3.5v-3.7c3-.7 5.3-3.3 5.3-6.5 0-3-1.9-5.5-4.7-6.4l-3.5-1.2a3.3 3.3 0 011-6.5h.4c1.8 0 3.3 1.5 3.3 3.3v.2l3.5-.2c0-3.1-2.2-5.8-5.3-6.5v-3.7h-3.5V42a6.8 6.8 0 00-.6 13l3.6 1.1a3.3 3.3 0 01-1 6.5h-.4a3.3 3.3 0 01-3.3-3.3v-2h-3.5v2c0 3.2 2.2 5.8 5.2 6.5z" fill="#00C058"/>
  <path fill-rule="evenodd" clip-rule="evenodd" d="M66 11.8c.8-3.1-3-7.8-7.5-7.8H53c-2.7 0-5.1 1.4-6.5 3.5h-4c-4.3 0-7.8 1.3-7.8 5.6l5.1 16.3-9.2 12.4c-3 4.2-4.6 9-4.6 14.1 0 13.3 10.9 24 24.2 24h.6a24.1 24.1 0 0024.2-24c0-5-1.6-10-4.6-14l-9.2-12.6L66 11.8zm1.5 32l-9.1-12.4H42.6l-9.1 12.5c-2.6 3.5-4 7.7-4 12 0 11.3 9.3 20.5 20.7 20.5h.6c11.4 0 20.7-9.2 20.7-20.5 0-4.3-1.4-8.5-4-12zM45.3 11h-2.8c-2.3 0-4.3-.1-4.3 2.2 0 .4.1.9.3 1.3L43 28h15l4.6-15 .1-1v-.2c0-2.3-1.8-4.2-4.2-4.2H53a4.2 4.2 0 00-4 5.5l3.2 7.4-3.4 1.1c-1-2.8-3.8-7.6-3.5-10.6z" fill="#00C058"/>
  <path fill-rule="evenodd" clip-rule="evenodd" d="M66 11.8c.8-3.1-3-7.8-7.5-7.8H53c-2.7 0-5.1 1.4-6.5 3.5h-4c-4.3 0-7.8 1.3-7.8 5.6l5.1 16.3-9.2 12.4c-3 4.2-4.6 9-4.6 14.1 0 13.3 10.9 24 24.2 24h.6a24.1 24.1 0 0024.2-24c0-5-1.6-10-4.6-14l-9.2-12.6L66 11.8zm1.5 32l-9.1-12.4H42.6l-9.1 12.5c-2.6 3.5-4 7.7-4 12 0 11.3 9.3 20.5 20.7 20.5h.6c11.4 0 20.7-9.2 20.7-20.5 0-4.3-1.4-8.5-4-12zM45.3 11h-2.8c-2.3 0-4.3-.1-4.3 2.2 0 .4.1.9.3 1.3L43 28h15l4.6-15 .1-1v-.2c0-2.3-1.8-4.2-4.2-4.2H53a4.2 4.2 0 00-4 5.5l3.2 7.4-3.4 1.1c-1-2.8-3.8-7.6-3.5-10.6z" fill="#fff"/>
  <path fill-rule="evenodd" clip-rule="evenodd" d="M58.4 31.4l9.1 12.5c2.6 3.5 4 7.7 4 12 0 11.3-9.3 20.5-20.7 20.5h-.6A20.6 20.6 0 0129.5 56c0-4.3 1.4-8.5 4-12l9.1-12.5h15.8z" fill="#fff"/>
  <path d="M42.5 11h2.8c-.3 3 2.6 7.7 3.5 10.5l3.4-1L49 13a4.2 4.2 0 014-5.5h5.5c2.4 0 4.2 1.9 4.2 4.2v.2l-.1 1-4.7 15H43l-4.5-13.5c-.2-.4-.3-.9-.3-1.3 0-2.3 2-2.2 4.3-2.2z" fill="#fff"/>
  <path d="M48.7 65.8v3.7h3.5v-3.7c3-.7 5.3-3.3 5.3-6.5 0-3-1.9-5.5-4.7-6.4l-3.5-1.2a3.3 3.3 0 011-6.5h.4c1.8 0 3.3 1.5 3.3 3.3v.2l3.5-.2c0-3.1-2.2-5.8-5.3-6.5v-3.7h-3.5V42a6.8 6.8 0 00-.6 13l3.6 1.1a3.3 3.3 0 01-1 6.5h-.4a3.3 3.3 0 01-3.3-3.3v-2h-3.5v2c0 3.2 2.2 5.8 5.2 6.5z" fill="#000"/>
  <path fill-rule="evenodd" clip-rule="evenodd" d="M66 11.8c.8-3.1-3-7.8-7.5-7.8H53c-2.7 0-5.1 1.4-6.5 3.5h-4c-4.3 0-7.8 1.3-7.8 5.6l5.1 16.3-9.2 12.4c-3 4.2-4.6 9-4.6 14.1 0 13.3 10.9 24 24.2 24h.6a24.1 24.1 0 0024.2-24c0-5-1.6-10-4.6-14l-9.2-12.6L66 11.8zm1.5 32l-9.1-12.4H42.6l-9.1 12.5c-2.6 3.5-4 7.7-4 12 0 11.3 9.3 20.5 20.7 20.5h.6c11.4 0 20.7-9.2 20.7-20.5 0-4.3-1.4-8.5-4-12zM45.3 11h-2.8c-2.3 0-4.3-.1-4.3 2.2 0 .4.1.9.3 1.3L43 28h15l4.6-15 .1-1v-.2c0-2.3-1.8-4.2-4.2-4.2H53a4.2 4.2 0 00-4 5.5l3.2 7.4-3.4 1.1c-1-2.8-3.8-7.6-3.5-10.6z" fill="#000"/>
</svg>
