<svg width="101" height="99" fill="none" xmlns="http://www.w3.org/2000/svg">
  <path d="M101 21.8L79.3 43.5a4.9 4.9 0 014.3 4.9v12.3L101 78.2l-2.3 2.3-7-7-17.2 17.2 7 7-2.3 2.3-19.6-19.5 2.3-2.3 3.8 3.7 17.2-17.2-2.1-2.2a1.6 1.6 0 01-.5-1.1v-13a1.6 1.6 0 00-3.3 0v6.5a1.6 1.6 0 01-2.7 1.1l-3.8-3.7-6.1 6.2A5 5 0 0161 60a5 5 0 01-1.5 3.4L50 72.8h2.6a4.9 4.9 0 110 9.8H40.3L22.8 100l-2.3-2.3 7-7-17.2-17.2-7 7L1 78.2l21.7-21.7a4.9 4.9 0 01-4.3-4.9V39.3L1 21.8l2.3-2.3 7 7 3.7-3.7 2.3 2.3-3.7 3.7 4.2 4.2L34 15.8l-4.2-4.2-11 11-2.3-2.2 11-11.1-7-7L22.8 0l21.7 21.7a4.9 4.9 0 014.9-4.3h12.3L79.2 0l2.3 2.3-7 7 17.2 17.2 7-7 2.3 2.3zM68 84.2l4.2 4.2 17.2-17.2-4.2-4.2L68 84.2zm-44.7-31a1.6 1.6 0 001.6-1.6v-6.5a1.6 1.6 0 012.8-1.1l3.8 3.7 6.1-6.2a5 5 0 013.8-1.5l1-1 7.3 7.4a1.8 1.8 0 102.6-2.6L45 36.5l2.3-2.3 7.3 7.3a1.8 1.8 0 002.6 0 1.8 1.8 0 000-2.6L36.3 18.1 19.1 35.3l2.1 2.2a1.6 1.6 0 01.5 1.1v13a1.6 1.6 0 001.6 1.7zm4.9-4.2v2l1-1-1-1zM34 84.2L16.8 67l-4.2 4.2 17.2 17.2 4.2-4.2zm23.7-24.4a1.8 1.8 0 00-3.1-1.3l-7.3 7.3a1.6 1.6 0 01-2.3-2.3l7.3-7.3a1.8 1.8 0 00-2.6-2.6l-7.3 7.3a1.6 1.6 0 01-2.3-2.3l7.3-7.3a1.8 1.8 0 10-2.6-2.6L37.5 56a1.6 1.6 0 11-2.3-2.3l7.3-7.3a1.8 1.8 0 10-2.6-2.6L19.1 64.7l17.2 17.2 2.1-2.1a1.6 1.6 0 011.2-.5h13a1.6 1.6 0 100-3.2h-6.5a1.6 1.6 0 01-1.1-2.8L57.2 61a1.8 1.8 0 00.5-1.3zm16-10.8l-.9 1 1 1v-2zM83 35.3L65.7 18.1l-2.2 2.1a1.6 1.6 0 01-1.1.5h-13a1.6 1.6 0 000 3.2h6.5a1.6 1.6 0 011.1 2.8l-1.6 1.7-1.1-1.2H50l9.5 9.4a5 5 0 011.5 3.8l1 1-7.4 7.3a1.8 1.8 0 002.6 2.6l7.3-7.3 2.3 2.3-7.3 7.3a1.8 1.8 0 002.6 2.6l20.8-20.9zm6.5-6.5L72.2 11.6 68 15.8 85.2 33l4.2-4.2zM52.6 1.2h-3.2v3.2h3.2V1.2zm-3.2 13h3.2V7.7h-3.2v6.5zm-8.3.3l3.1-.7-3-13-3.2.7 3 13zm19.8 0l3-13-3-.7-3.1 13 3.1.7zM49.4 98.8h3.2v-3.2h-3.2v3.2zm3.2-13h-3.2v6.5h3.2v-6.5zM64 98.5l-3-13-3.2.7 3 13 3.2-.7zm-23-13l-3 13 3.2.7 3-13-3.1-.7zM5.5 51.6v-3.2H2.1v3.2h3.3zm3.3 0h6.5v-3.2H8.7v3.2zM2.5 63l13-3-.7-3.2-13 3 .7 3.2zm0-26l-.7 3.2 13 3 .7-3.1-13-3zm94 11.4v3.2h3.3v-3.2h-3.2zm-3.2 0h-6.5v3.2h6.5v-3.2zM99.5 37l-13 3 .7 3.2 13-3-.7-3.2zm0 26l.7-3.2-13-3-.8 3.1 13 3z" fill="#00C058"/>
  <path d="M101 21.8L79.3 43.5a4.9 4.9 0 014.3 4.9v12.3L101 78.2l-2.3 2.3-7-7-17.2 17.2 7 7-2.3 2.3-19.6-19.5 2.3-2.3 3.8 3.7 17.2-17.2-2.1-2.2a1.6 1.6 0 01-.5-1.1v-13a1.6 1.6 0 00-3.3 0v6.5a1.6 1.6 0 01-2.7 1.1l-3.8-3.7-6.1 6.2A5 5 0 0161 60a5 5 0 01-1.5 3.4L50 72.8h2.6a4.9 4.9 0 110 9.8H40.3L22.8 100l-2.3-2.3 7-7-17.2-17.2-7 7L1 78.2l21.7-21.7a4.9 4.9 0 01-4.3-4.9V39.3L1 21.8l2.3-2.3 7 7 3.7-3.7 2.3 2.3-3.7 3.7 4.2 4.2L34 15.8l-4.2-4.2-11 11-2.3-2.2 11-11.1-7-7L22.8 0l21.7 21.7a4.9 4.9 0 014.9-4.3h12.3L79.2 0l2.3 2.3-7 7 17.2 17.2 7-7 2.3 2.3zM68 84.2l4.2 4.2 17.2-17.2-4.2-4.2L68 84.2zm-44.7-31a1.6 1.6 0 001.6-1.6v-6.5a1.6 1.6 0 012.8-1.1l3.8 3.7 6.1-6.2a5 5 0 013.8-1.5l1-1 7.3 7.4a1.8 1.8 0 102.6-2.6L45 36.5l2.3-2.3 7.3 7.3a1.8 1.8 0 002.6 0 1.8 1.8 0 000-2.6L36.3 18.1 19.1 35.3l2.1 2.2a1.6 1.6 0 01.5 1.1v13a1.6 1.6 0 001.6 1.7zm4.9-4.2v2l1-1-1-1zM34 84.2L16.8 67l-4.2 4.2 17.2 17.2 4.2-4.2zm23.7-24.4a1.8 1.8 0 00-3.1-1.3l-7.3 7.3a1.6 1.6 0 01-2.3-2.3l7.3-7.3a1.8 1.8 0 00-2.6-2.6l-7.3 7.3a1.6 1.6 0 01-2.3-2.3l7.3-7.3a1.8 1.8 0 10-2.6-2.6L37.5 56a1.6 1.6 0 11-2.3-2.3l7.3-7.3a1.8 1.8 0 10-2.6-2.6L19.1 64.7l17.2 17.2 2.1-2.1a1.6 1.6 0 011.2-.5h13a1.6 1.6 0 100-3.2h-6.5a1.6 1.6 0 01-1.1-2.8L57.2 61a1.8 1.8 0 00.5-1.3zm16-10.8l-.9 1 1 1v-2zM83 35.3L65.7 18.1l-2.2 2.1a1.6 1.6 0 01-1.1.5h-13a1.6 1.6 0 000 3.2h6.5a1.6 1.6 0 011.1 2.8l-1.6 1.7-1.1-1.2H50l9.5 9.4a5 5 0 011.5 3.8l1 1-7.4 7.3a1.8 1.8 0 002.6 2.6l7.3-7.3 2.3 2.3-7.3 7.3a1.8 1.8 0 002.6 2.6l20.8-20.9zm6.5-6.5L72.2 11.6 68 15.8 85.2 33l4.2-4.2z" fill="#000"/>
</svg>
