<svg width="49" height="49" fill="none" xmlns="http://www.w3.org/2000/svg">
  <path fill-rule="evenodd" clip-rule="evenodd" d="M25 10.7a14.3 14.3 0 100 28.6 14.3 14.3 0 000-28.6zM9 25a16 16 0 1132 0 16 16 0 01-32 0z" fill="#00C058"/>
  <path opacity=".6" d="M24.4 0L24 26 39 6.6C38 2.9 27.2 0 24.4 0z" fill="#00C058"/>
  <path d="M39.2 5.8L24.7 26 40.3 6.6l-1-.8z" fill="#00C058"/>
  <path fill-rule="evenodd" clip-rule="evenodd" d="M24.5 1.6a22.9 22.9 0 100 45.8 22.9 22.9 0 000-45.8zM0 24.5a24.5 24.5 0 1149 0 24.5 24.5 0 01-49 0z" fill="#00C058"/>
  <path d="M37 37a3 3 0 100-6 3 3 0 000 6zM26 24.5a1.5 1.5 0 11-3 0 1.5 1.5 0 013 0z" fill="#00C058"/>
  <path fill-rule="evenodd" clip-rule="evenodd" d="M49 26H0v-2h49v2z" fill="#00C058"/>
  <path fill-rule="evenodd" clip-rule="evenodd" d="M26 0v49h-2V0h2z" fill="#00C058"/>
</svg>
