<svg width="32" height="38" fill="none" xmlns="http://www.w3.org/2000/svg">
  <path d="M19.5 12.5V14v-1.5zm-.2-10.2l1-1.2-1 1.2zm10.4 9.4l-1 1.1 1-1.1zm-22.2-.2a1.5 1.5 0 000 3v-3zm5.5 3a1.5 1.5 0 000-3v3zm-5.5 3a1.5 1.5 0 000 3v-3zm17 3a1.5 1.5 0 000-3v3zM7.5 24a1.5 1.5 0 000 3v-3zm17 3a1.5 1.5 0 000-3v3zm-17 2.5a1.5 1.5 0 000 3v-3zm5.5 3a1.5 1.5 0 000-3v3zm17-21.6l-10.5.1v3H30v-3zm-10 .6V2h-3v9.5h3zm-.5-.5a.5.5 0 01.5.5h-3a2.5 2.5 0 002.5 2.5v-3zM29 34.5H3v3h26v-3zM3.5 35V3h-3v32h3zM3 3.5h15.6v-3H3v3zm25.5 9V35h3V12.4h-3zM18.3 3.3l10.4 9.4 2-2.2-10.4-9.4-2 2.2zm13.2 9a2.5 2.5 0 00-.8-1.8l-2 2.2a.5.5 0 01-.2-.4h3zM18.6 3.5a.5.5 0 01-.3-.1l2-2.3a2.5 2.5 0 00-1.7-.6v3zM3 34.5a.5.5 0 01.5.5h-3A2.5 2.5 0 003 37.5v-3zm26 3a2.5 2.5 0 002.5-2.5h-3a.5.5 0 01.5-.5v3zM3.5 3a.5.5 0 01-.5.5v-3A2.5 2.5 0 00.5 3h3zm4 11.5H13v-3H7.5v3zm0 6h17v-3h-17v3zm0 6.5h17v-3h-17v3zm0 5.5H13v-3H7.5v3z" fill="#fff"/>
</svg>
