<svg width="47" height="49" fill="none" xmlns="http://www.w3.org/2000/svg">
  <path d="M31 28.2l4.7-15.9h-2.6l-1 3.3c-.3-1-1-2-1.7-2.7a7.2 7.2 0 00-5.1-1.7c-2 0-4 .5-5.6 1.7-1.6 1-3 2.5-4.2 4.2a21 21 0 00-3.6 11.7c0 1 .2 2.1.5 3.1.3 1.1.7 2 1.4 2.9a7.5 7.5 0 006 2.7c1.2 0 2.3-.2 3.3-.6a11.6 11.6 0 004.6-3.3c0-.2.2-.3.3-.4.1 1.2.6 2.1 1.4 2.8 1.2 1 2.7 1.5 4.4 1.5a12 12 0 009.8-5c1.1-1.4 2-3.2 2.5-5.3.6-2 .9-4.3.9-6.6a20 20 0 00-13.6-19 26.1 26.1 0 00-18.6.3 24.4 24.4 0 00-13 32 24 24 0 0012.7 13.2 25.5 25.5 0 0021-.6c3.4-1.6 6.2-3.9 8.6-6.7l.4-.4-1.9-1.7-.4.5c-2 2.4-4.6 4.4-7.7 6-3 1.5-6.4 2.3-10 2.3A21 21 0 014.2 33a23.1 23.1 0 01.2-16.8 21.6 21.6 0 0134.4-8.5 17.1 17.1 0 015.7 13c0 1.8-.3 3.6-.7 5.3a15 15 0 01-1.9 4.6 9 9 0 01-8 4.4c-1 0-1.8-.2-2.4-.7-.6-.4-1-1.2-1-2.4l.2-1.7.5-2zm-1.2-4.4c-.4 1.8-1.1 3.5-2 5.2-.9 1.6-2 3-3.3 4.3a6.2 6.2 0 01-4.3 1.7c-2 0-3.4-.6-4.3-1.7a7 7 0 01-1.3-4.5 19.3 19.3 0 012.9-10c.9-1.5 2-2.7 3.3-3.7a7.4 7.4 0 016.9-1c.6.3 1.1.7 1.5 1.3.5.5.8 1.1 1 1.8.2.8.3 1.5.3 2.3 0 1.1-.2 2.6-.7 4.3z" fill="#00C058"/>
</svg>
