<svg width="46" height="50" fill="none" xmlns="http://www.w3.org/2000/svg">
  <path fill-rule="evenodd" clip-rule="evenodd" d="M6.6 34.7c.5 0 1-.2 1.4-.4l.9-.7c1-1.2.8-3-.3-4a3 3 0 001-4.9 3 3 0 002-3 3 3 0 00-1.1-2l-1.6-1.3-1.5-1.2a3 3 0 00-1.5-.6V9.1a.7.7 0 00-1.5 0 3 3 0 00-3.7.7A3 3 0 001 14l3.3 2.8v.2a3 3 0 00-1.7 3c0 .6.4 1.3.9 1.8a3 3 0 00-1 4.9 3 3 0 00-2 3 3 3 0 001.1 2l2.7 2.2c.7.3 1.4.9 2.2.9zM1.5 11.8c0 .4.2.8.5 1l2.4 2V11l-.5-.5a1.5 1.5 0 00-2.1.2c-.2.3-.4.7-.3 1.1zm4 6.3a1.5 1.5 0 00-1.3 1.6c0 .4.2.7.5 1l3 2.4a1.5 1.5 0 001.8-2.3l-3-2.4a1.5 1.5 0 00-1-.3zm-1 4.9c-.4 0-.8.2-1 .5-.5.6-.4 1.6.2 2l3 2.5a1.5 1.5 0 001.8-2.3l-1.7-1.4-1.3-1c-.3-.3-.7-.4-1-.3zm-2 5.4a1.5 1.5 0 00.2 2l3 2.5a1.5 1.5 0 002-.3c.5-.6.4-1.5-.2-2l-1.7-1.4-1.3-1a1.5 1.5 0 00-2 .2z" fill="#00C058"/>
  <path d="M45.5 48.2L37.7 39a.7.7 0 10-1.1 1l7.8 9.2a.7.7 0 101-1zM27.5 46.2a.7.7 0 00-.5-.3 6.3 6.3 0 01-5.1-5l-.3-1.3c-.3-1.5 0-3 .7-4.3l3.6-6.4c.5-.8.4-1.9-.2-2.6l-3.4-4.4c-1-1.3-1-3 .2-4.3l.1-.2.3-.2s.2 0 .3.2l3.3 3.4a.7.7 0 001-1l-3.2-3.4a1.9 1.9 0 00-2.8 0l-.1.2a4.9 4.9 0 00-.2 6.2l3.4 4.4c.2.3.2.6 0 1L21 34.5a7.7 7.7 0 00-.8 5.4l.2 1.3c.7 3 3 5.5 6 6l1.5 2a.7.7 0 101.2-1l-1.6-2z" fill="#00C058"/>
  <path d="M36.5 37.7a1 1 0 01-.2-.7v-3.8c0-2.6-1-5.2-2.8-7L27.7 20c-.3-.3-.5-.3-.8 0-.3.3-1.2 0-1 .2l6.5 7a8.9 8.9 0 012.4 6V37c0 .6.2 1.2.6 1.6l2 2.3a.7.7 0 101-1l-1.9-2.2z" fill="#00C058"/>
  <path fill-rule="evenodd" clip-rule="evenodd" d="M24.3 6.4h-20V4.8h20v1.6zM8.7 35.9c0-.5.4-.9.9-.9h8a.8.8 0 010 1.7h-8a.8.8 0 01-.9-.8z" fill="#00C058"/>
  <path fill-rule="evenodd" clip-rule="evenodd" d="M4.4 4a4 4 0 014-4h12.3a4 4 0 014 4v9.6a.8.8 0 01-1.6 0V4c0-1.3-1-2.4-2.4-2.4H8.4C7 1.6 6 2.6 6 4v4.8a.8.8 0 01-1.6 0V4zm.8 31.2c.4 0 .8.4.8.8v.7C6 38 7 39 8.4 39h10.2a.8.8 0 110 1.6H8.4a4 4 0 01-4-4V36c0-.4.3-.8.8-.8z" fill="#00C058"/>
</svg>
