<svg width="46" height="45" fill="none" xmlns="http://www.w3.org/2000/svg">
  <path fill-rule="evenodd" clip-rule="evenodd" d="M23 45a22.5 22.5 0 100-45 22.5 22.5 0 000 45zm12.5-18.8l-1.1-1.1c-.6-.6-.6-1-.2-1.8l.3-.6a304 304 0 013.2-4.3c.6-1 1.2-1.9 1.5-3 0-.5-.1-.8-.6-1a904.5 904.5 0 00-6-.1c-.8 0-1 .2-1.3 1a22.7 22.7 0 01-4.2 7c-.5.5-1 .3-1.2-.5l-.1-1.6v-2.6a171 171 0 000-2.7c0-.6-.4-1-1-1.2l-1.6-.2h-3.6c-.8 0-1.5.2-2 .8-.2.3-.2.6.2.7 1.2.2 1.5 1 1.6 1.8v3.4a8 8 0 01-.3 2c-.2.4-.5.5-1 .2l-.6-.6c-1.5-2-2.7-4-3.6-6.3-.3-.8-.8-1.2-1.6-1.2h-5c-.5.1-.6.6-.5 1.1l1.6 3.4a48 48 0 005 8.2c1.2 1.6 2.6 3 4.4 4 2.1 1.1 4.4 1.4 6.7 1.3.8 0 1.3-.5 1.3-1.3 0-.1.2-1.8.5-2.4.3-.7.9-.8 1.5-.3l.7.6.8.9 1.4 1.5c.7.7 1.6 1 2.6 1H38c1.2-.1 1.6-1 1-2.1l-1.7-2.3-1.7-1.7z" fill="#00C058"/>
</svg>
